{"title":"Singham -2011- 1CD Super Cam Rip XviD-The Desi Bacha @DusTorrent","uid":6558238,"size":745240904,"categoryP":"video","categoryS":"movies","magnet":"?xt=urn:btih:a82104727d643bb4824d03a74489ae5ec5c95fd8&amp;dn=Singham+-2011-+1CD+Super+Cam+Rip+XviD-The+Desi+Bacha+%40DusTorrent&amp;tr=udp%3A%2F%2Ftracker.openbittorrent.com%3A80&amp;tr=udp%3A%2F%2Fopen.demonii.com%3A1337&amp;tr=udp%3A%2F%2Ftracker.coppersurfer.tk%3A6969&amp;tr=udp%3A%2F%2Fexodus.desync.com%3A6969","seeders":0,"leechers":0,"uploader":"ErSSP","files":4,"time":1311362817,"description":"[CENTER][CENTER]\n===========Visit DUSTorrents.com for more Exclusives==============\n\nDon't forget to Register at DUSTorrents.com A completely free site. Moreover currently ratio free as well.\n\n========================================================\n\n\n[B][COLOR=&quot;#FF0000&quot;]Singham - 2011 - \n1CD Super Cam Rip XviD \n- TheDesiBacha -[/COLOR][/B]\n\n\n[CODE]Format : AVI\nFormat/Info : Audio Video Interleave\nFile size : 677 MiB\nDuration : 2h 14mn\nOverall bit rate : 706 Kbps\nWriting application : Lavf52.39.1\nWriting library : VirtualDub build 32842/release\n\nVideo\nID : 0\nFormat : MPEG-4 Visual\nFormat profile : Advanced Simple@L5\nFormat settings, BVOP : 2\nFormat settings, QPel : No\nFormat settings, GMC : No warppoints\nFormat settings, Matrix : Default (H.263)\nMuxing mode : Packed bitstream\nCodec ID : XVID\nCodec ID/Hint : XviD\nDuration : 2h 14mn\nBit rate : 629 Kbps\nWidth : 624 pixels\nHeight : 232 pixels\nDisplay aspect ratio : 2.690\nFrame rate : 25.000 fps\nColor space : YUV\nChroma subsampling : 4:2:0\nBit depth : 8 bits\nScan type : Progressive\nCompression mode : Lossy\nBits/(Pixel*Frame) : 0.174\nStream size : 604 MiB (89%)\nWriting library : XviD 63\n\nAudio\nID : 1\nFormat : MPEG Audio\nFormat version : Version 1\nFormat profile : Layer 3\nMode : Joint stereo\nMode extension : MS Stereo\nCodec ID : 55\nCodec ID/Hint : MP3\nDuration : 2h 14mn\nBit rate mode : Constant\nBit rate : 64.0 Kbps\nChannel(s) : 2 channels\nSampling rate : 48.0 KHz\nCompression mode : Lossy\nStream size : 61.4 MiB (9%)\nAlignment : Aligned on interleaves\nInterleave, duration : 24 ms (0.60 video frame)\nInterleave, preload duration : 504 ms[/CODE]\n\n\n\n\n\n\n\n\n===========Visit DUSTorrents.com for more Exclusives==============\n\nDon't forget to Register at DUSTorrents.com A completely free site. Moreover currently ratio free as well.\n\n========================================================\n[/CENTER][/CENTER]","torrent":{"xt":"urn:btih:a82104727d643bb4824d03a74489ae5ec5c95fd8","amp;dn":"Singham+-2011-+1CD+Super+Cam+Rip+XviD-The+Desi+Bacha+%40DusTorrent","amp;tr":["udp%3A%2F%2Ftracker.openbittorrent.com%3A80","udp%3A%2F%2Fopen.demonii.com%3A1337","udp%3A%2F%2Ftracker.coppersurfer.tk%3A6969","udp%3A%2F%2Fexodus.desync.com%3A6969"],"infoHash":"a82104727d643bb4824d03a74489ae5ec5c95fd8","infoHashBuffer":{"type":"Buffer","data":[168,33,4,114,125,100,59,180,130,77,3,167,68,137,174,94,197,201,95,216]},"announce":[],"urlList":[]}}